<?xml version="1.0" encoding="UTF-8" standalone="no"?>
<!-- Created with Inkscape (http://www.inkscape.org/) -->
<svg xmlns:inkscape="http://www.inkscape.org/namespaces/inkscape" xmlns:rdf="http://www.w3.org/1999/02/22-rdf-syntax-ns#" xmlns="http://www.w3.org/2000/svg" xmlns:xlink="http://www.w3.org/1999/xlink" xmlns:ns1="http://sozi.baierouge.fr" xmlns:cc="http://creativecommons.org/ns#" xmlns:dc="http://purl.org/dc/elements/1.1/" xmlns:sodipodi="http://sodipodi.sourceforge.net/DTD/sodipodi-0.dtd" id="svg2" sodipodi:docname="cane-hat.svg" viewBox="0 0 487.29 277.66" version="1.1" inkscape:version="0.48.4 r9939">
  <sodipodi:namedview id="base" bordercolor="#666666" inkscape:pageshadow="2" inkscape:window-y="0" fit-margin-left="10" pagecolor="#ffffff" fit-margin-top="10" inkscape:window-maximized="1" inkscape:zoom="0.24748737" inkscape:window-x="0" inkscape:window-height="715" showgrid="false" borderopacity="1.0" inkscape:current-layer="layer1" inkscape:cx="1296.9794" inkscape:cy="279.45461" fit-margin-right="10" fit-margin-bottom="10" inkscape:window-width="1366" inkscape:pageopacity="0.0" inkscape:document-units="px"/>
  <g id="layer1" inkscape:label="Layer 1" inkscape:groupmode="layer" transform="translate(5174 -2657.1)">
    <path id="path3658" style="fill:#000000" inkscape:connector-curvature="0" d="m-5158.9 2923.3c-2.1514-1.9347-5.0389-6.0509-5.0389-7.1831 0-0.4113 1.5126-1.6698 3.3614-2.7967 1.8489-1.127 5.8752-3.6796 8.9475-5.6725 7.4689-4.8449 8.5248-5.4565 13.472-7.8038 2.3358-1.108 6.468-3.4943 9.1827-5.3027s6.1266-4.0345 7.5819-4.9469 4.2839-2.7427 6.2857-4.0673c5.3872-3.5649 12.646-7.9596 16.885-10.222 2.057-1.0981 4.2037-2.5442 4.7704-3.2135 0.5668-0.6694 1.6032-1.3274 2.3031-1.4621 1.259-0.2425 8.2267-4.1595 15.684-8.8169 2.1187-1.3232 4.0644-2.4059 4.3237-2.4059 0.2592 0 0.8297-0.4317 1.2676-0.9594 0.438-0.5277 2.314-1.7582 4.1689-2.7345 3.6546-1.9234 3.5266-1.8471 10.652-6.3471 2.6692-1.6858 7.0369-4.2552 9.706-5.7097 2.669-1.4546 5.5352-3.1045 6.3693-3.6667 0.8341-0.5621 3.0179-1.8388 4.8529-2.8371 5.6511-3.0745 10.914-6.1817 14.961-8.834 1.4002-0.9175 2.7698-1.6682 3.0436-1.6682 0.2739 0 4.1082-2.1155 8.5207-4.7012 4.4125-2.5856 12.02-7.0214 16.906-9.8573 4.8858-2.8359 11.052-6.4528 13.704-8.0375 2.6511-1.5848 4.9589-2.8814 5.1284-2.8814 0.4605 0 8.793-4.9289 10.46-6.1871 0.7956-0.6007 1.9437-1.0922 2.5511-1.0922s2.054-0.6142 3.2146-1.3648c1.1605-0.7507 4.3801-2.6735 7.1545-4.273 2.7745-1.5994 7.6377-4.5312 10.807-6.515 3.1695-1.9839 7.2641-4.3517 9.0991-5.2619 4.7554-2.3588 21.418-11.94 26.084-14.998 10.194-6.682 13.123-8.4556 16.589-10.047 2.0526-0.9423 5.9646-3.171 8.6935-4.9526s5.7998-3.7043 6.8243-4.2726 1.8593-1.2507 1.8552-1.5165c-0.01-0.2657-0.9723-1.1082-2.1514-1.8722-1.1792-0.7639-2.2891-1.7674-2.4666-2.2298-0.1774-0.4626-1.7617-2.3031-3.5203-4.0901-5.1616-5.2446-6.3105-7.4891-6.4967-12.692-0.088-2.4586-0.4463-4.963-0.7962-5.5654-0.495-0.852-0.4006-1.2291 0.4253-1.6983 0.5838-0.3317 1.0615-1.102 1.0615-1.7119 0-0.6098 0.3827-1.4264 0.8504-1.8146 0.4677-0.3881 1.0189-1.377 1.2247-2.1973 0.206-0.8205 0.7855-1.4917 1.2878-1.4917s1.1483-0.6142 1.4354-1.3648c1.3537-3.5398 6.3409-5.3346 14.57-5.2436 10.041 0.1111 16.742 0.7596 16.574 1.6039-0.083 0.4171 0.326 0.7615 0.9099 0.7655 3.0333 0.021 20.616 5.3847 25.846 7.8852 2.5409 1.2149 3.248 1.0954 6.456-1.0922 1.1677-0.7962 4.5799-2.8001 7.5826-4.4529 3.0027-1.6529 7.2338-4.113 9.4024-5.4668 2.1686-1.3537 5.0348-3.0556 6.3693-3.7819 1.3346-0.7262 3.5183-2.0269 4.8529-2.8902 3.3694-2.1801 22.162-13.259 22.491-13.259 0.1474 0 2.5902-1.498 5.4283-3.3289 5.9273-3.8237 9.5722-5.7702 10.805-5.7702 0.4729 0 1.1996-0.4095 1.6149-0.9099 1.0127-1.2202 5.5581-1.2662 5.092-0.052-0.1947 0.5073 0.4341 1.4229 1.5373 2.2385 2.7348 2.0219 4.2896 5.6766 4.2896 10.083 0 3.3594-0.1655 3.8369-1.8103 5.2208-1.9045 1.6025-6.5412 3.5362-11.382 4.7467-2.3828 0.5958-20.168 10.409-44.068 24.316l-4.1816 2.4331 4.4849 1.455c5.3287 1.7289 11.346 2.6615 19.732 3.0584 5.0343 0.2382 7.5593 0.01 13.933-1.2862 6.637-1.3445 8.5479-2.01 12.96-4.5133 8.5155-4.8318 13.355-6.8455 19.43-8.0841 9.3068-1.8977 16.858-0.7708 22.044 3.2896 3.3326 2.609 4.8013 4.4529 5.6466 7.0888 0.9481 2.9568 0.3721 5.3894-2.7093 11.442-1.7922 3.5203-14.83 11.341-27.53 16.514-4.2376 1.726-7.9503 3.4552-8.2504 3.8426-0.9083 1.1722-1.901 8.8299-2.5825 19.921-0.5904 9.6093-0.5118 11.952 0.9192 27.406 0.8606 9.2945 1.9545 21.988 2.4307 28.207 0.5365 7.0061 1.917 17.358 3.6289 27.212 1.5197 8.7471 2.7631 16.186 2.7631 16.53 0 0.3642-1.5988 0.6261-3.8216 0.6261-2.1019 0-4.081 0.2529-4.3979 0.562-0.7511 0.7324-14.477 4.7021-19.965 5.774-13.527 2.6423-18.606 3.0664-36.723 3.0664-26.789 0-33.513-1.0151-45.767-6.9093-4.0212-1.9343-7.9736-4.0651-8.7831-4.735l-1.4717-1.2181 0.7186-8.7339c0.3953-4.8037 1.1774-14.057 1.7381-20.563 1.8604-21.587 1.37-75.45-0.7884-86.593-0.3747-1.9346-1.602-1.7089-5.7731 1.0616-2.0092 1.3345-4.0784 2.4264-4.5982 2.4264s-2.0026 0.9554-3.2952 2.1231c-1.2925 1.1677-2.5821 2.1231-2.8657 2.1231-0.519 0-16.065 8.9595-18.892 10.888-0.8341 0.569-8.0678 4.7868-16.075 9.3729-8.0072 4.5862-15.787 9.1167-17.288 10.068-1.5013 0.9512-5.7324 3.4128-9.4024 5.4703-3.6699 2.0575-8.8564 5.1135-11.526 6.7912-4.1406 2.6025-20.408 11.903-31.847 18.207-1.8349 1.0114-3.7458 2.1713-4.2462 2.5777-0.5005 0.4064-3.3667 2.1199-6.3694 3.8077s-6.6878 3.7639-8.1891 4.6134c-9.6078 5.4366-14.832 8.3147-22.444 12.364-1.5014 0.7987-5.8689 3.3385-9.7057 5.644s-9.2962 5.4789-12.132 7.0522c-2.8359 1.5731-5.2472 3.0807-5.3584 3.3502-0.1112 0.2694-0.5662 0.4899-1.011 0.4899s-0.8998 0.2071-1.011 0.4601c-0.1112 0.2531-1.9765 1.3837-4.1451 2.5126-2.1686 1.1288-4.3524 2.3894-4.8529 2.8013-1.0562 0.8693-9.1004 5.7515-9.4764 5.7515-0.1394 0-1.2716 0.6357-2.5161 1.4126-2.1229 1.3254-3.7889 2.2476-15.305 8.4721-2.5023 1.3525-5.9144 3.3295-7.5826 4.3934-1.6681 1.0639-4.4904 2.7224-6.2716 3.6855-5.117 2.7668-6.2891 3.4648-9.215 5.4882-1.5113 1.0452-6.5613 4.0101-11.222 6.5889-4.6609 2.5787-9.8674 5.6096-11.57 6.7353-1.7027 1.1258-3.3753 2.0468-3.717 2.0468s-0.9337 0.3765-1.3155 0.8366c-0.5562 0.6702-0.3598 0.9011 0.9872 1.1605 1.0936 0.2106 1.8513 0.024 2.1668-0.5333 0.8875-1.5684 7.0974-0.8618 7.0974 0.8076 0 0.7325-0.4965 0.8373-2.471 0.5215-1.623-0.2595-2.3394-0.182-2.0874 0.2258 0.2111 0.3415 0.7857 0.6209 1.2769 0.6209 0.4913 0 1.0503 0.4095 1.2424 0.9099 0.192 0.5005 0.609 0.9099 0.9266 0.9099s0.4272-0.2431 0.2436-0.5402c-0.4216-0.6823 2.0045-2.3001 3.9464-2.6316l1.4721-0.2512-1.7175-0.7186c-4.2357-1.7723 0.413-3.1143 11.726-3.385 3.5031-0.084 7.2507-0.4512 8.3279-0.8164 1.3404-0.4544 3.7336-0.4922 7.5826-0.1198 8.3378 0.8067 8.9603 0.767 8.9603-0.5713 0-1.4452 1.1385-1.8848 4.8811-1.8848 2.3073 0 3.1008 0.2593 3.5898 1.1729 0.3452 0.6451 1.3574 1.2593 2.2493 1.3649s1.7226 0.5001 1.8461 0.8766c0.3048 0.9298-7.1138 2.2852-10.224 1.8681-1.9221-0.2578-2.6531-0.08-3.4365 0.8347-1.0625 1.2408-3.7583 1.5295-5.5133 0.5903-0.5876-0.3144-2.5487-0.7298-4.3579-0.9229-2.4517-0.2618-2.942-0.1983-1.9248 0.2489 2.7183 1.1952 1.3694 2.7236-1.6416 1.8601-1.492-0.4279-2.3125-0.3368-3.4035 0.378-0.975 0.6389-2.4682 0.8747-4.6413 0.7331-2.6733-0.1743-3.1778-0.047-3.0457 0.7656 0.1245 0.7669-0.5861 1.0529-3.3363 1.3428-1.9221 0.2026-4.7202 0.9623-6.2182 1.6881-1.9759 0.9574-4.2239 1.3915-8.1892 1.5813-3.006 0.1439-6.0115 0.4936-6.6788 0.7771-0.6672 0.2835-2.2659 0.6613-3.5525 0.8395-1.2866 0.1781-2.6978 0.8141-3.1358 1.4132-0.6344 0.8676-1.6396 1.0854-4.9399 1.0706-2.2789-0.01-4.8942-0.2202-5.8117-0.4665-1.2775-0.343-1.6681-0.2348-1.6681 0.462 0 0.9026-0.7622 1.1798-4.8529 1.7645-1.1677 0.1669-2.9484 0.4793-3.9571 0.6942-1.4798 0.3153-2.2024 0.059-3.7427-1.3257zm20.438-3.7891c0-0.7105-1.2908-1.168-2.2747-0.8062-1.313 0.4829-0.8236 1.3622 0.7582 1.3622 0.8341 0 1.5165-0.2502 1.5165-0.556zm-12.132-4.722c0.5005-0.2234 2.4113-1.3803 4.2463-2.5708 5.4857-3.5589 5.651-3.6541 8.6648-4.9929 2.9989-1.3321 3.4562-2.4807 1.1239-2.8233-0.8276-0.1216-3.8575 1.3253-7.9393 3.7913-3.6304 2.1934-6.8036 3.9879-7.0514 3.9879s-1.8967 1.0919-3.6643 2.4264-3.4985 2.4264-3.8464 2.4264c-0.9847 0-0.7443 1.0905 0.3789 1.719 0.7518 0.4208 1.8033 0.036 4.0946-1.4957 1.6956-1.134 3.4925-2.2447 3.9929-2.4683zm20.232 2.9957c0.1572-0.2545-0.054-1.0979-0.4697-1.8744-0.7447-1.3914-0.7556-1.3847-0.7556 0.4625 0 1.7655 0.588 2.4431 1.2253 1.4119zm9.4821-2.4188c-0.012-0.5808-1.1822-2.4122-1.1946-1.8695-0.01 0.2229-0.175 0.8371-0.3775 1.3649-0.2416 0.6296-0.033 0.9595 0.6066 0.9595 0.5361 0 0.9706-0.2047 0.9655-0.4549zm-6.9667-1.3649c-0.2062-0.3336-0.6318-0.6066-0.9457-0.6066-0.314 0-0.5708 0.273-0.5708 0.6066s0.4256 0.6066 0.9457 0.6066c0.5202 0 0.777-0.273 0.5708-0.6066zm22.748-0.8392c0-0.1279-0.5459-0.3753-1.2132-0.5497-0.6673-0.1746-1.2132-0.07-1.2132 0.2325 0 0.3024 0.5459 0.5498 1.2132 0.5498s1.2132-0.1046 1.2132-0.2326zm-24.568-2.1938c0.2062-0.3337-0.067-0.6066-0.6066-0.6066-0.5398 0-0.8128 0.2729-0.6066 0.6066 0.2062 0.3336 0.4792 0.6066 0.6066 0.6066s0.4004-0.273 0.6066-0.6066zm31.303-0.7863c-0.7786-0.7786-1.5681-0.1768-0.9917 0.7558 0.2232 0.3612 0.6838 0.4851 1.0234 0.2752 0.4143-0.2561 0.4039-0.5954-0.031-1.031zm-6.5344 0.1704c1.856-0.01 2.2865-0.1657 1.6185-0.5973-1.3788-0.8911-3.8732-0.7217-5.1918 0.3528-1.0775 0.8779-1.0831 0.9295-0.066 0.6066 0.6111-0.1941 2.249-0.357 3.6396-0.3621zm-22.646-1.2039c0-0.3337-0.2568-0.6067-0.5708-0.6067-0.3139 0-0.7395 0.273-0.9457 0.6067-0.2062 0.3336 0.05 0.6066 0.5708 0.6066 0.5201 0 0.9457-0.273 0.9457-0.6066zm-2.3871-1.5639c0.4369-0.5265 2.0399-1.6295 3.5622-2.4513 1.5223-0.8217 4.9516-2.8267 7.6207-4.4555s6.3395-3.834 8.1565-4.9004c3.6123-2.1199 7.0767-5.2646 6.4691-5.8721-0.5038-0.5039-4.6851 1.8379-8.8628 4.9639-1.835 1.373-6.4737 4.3673-10.308 6.6538-6.433 3.8362-8.4271 5.3802-8.4773 6.5639-0.033 0.7825 1.0099 0.4977 1.8398-0.5023zm3.3719-6.1438c2.6279-1.5701 4.869-3.0715 4.9802-3.3363 0.1112-0.2649 0.4146-0.4816 0.6742-0.4816s2.4888-1.3233 4.9539-2.9408c4.7693-3.1293 8.5906-5.3831 15.336-9.0446 4.8659-2.6414 4.9314-2.6801 10.258-6.0611 8.378-5.3176 11.799-7.3974 17.363-10.555 3.1452-1.785 6.9668-4.0082 8.4925-4.9404s3.2517-1.8513 3.8356-2.0423c0.5838-0.1909 1.0615-0.5883 1.0615-0.883 0-0.2948 0.4095-0.5359 0.9099-0.5359 0.5005 0 0.9099 0.273 0.9099 0.6066 0 0.3337-0.4094 0.6066-0.9099 0.6066-0.5004 0-0.9099 0.2914-0.9099 0.6475 0 1.0024 2.3302 0.081 6.3694-2.5187 2.0018-1.2884 4.5268-2.7904 5.6111-3.3378 2.3896-1.2064 2.6526-2.3435 0.3033-1.3113-0.9175 0.4031-1.8047 0.8749-1.9715 1.0485-0.6526 0.6792-3.0565 1.8312-3.783 1.8129-1.057-0.027 0.8384-1.3872 6.1375-4.406 4.6957-2.6749 5.0584-2.8902 8.7565-5.198 1.264-0.7887 2.4277-1.3045 2.5861-1.1461 0.2975 0.2976-3.3306 3.2644-4.1494 3.3931-1.5404 0.2421-4.1534 2.0943-3.6562 2.5915 0.3575 0.3575 2.0735-0.3998 4.5837-2.0231 6.5744-4.2513 8.3837-5.3242 8.9782-5.3242 0.3106 0 0.5646-0.273 0.5646-0.6066s0.3939-0.6066 0.8752-0.6066c0.8393 0 5.1684-2.2758 5.7975-3.0477 0.1668-0.2047 1.4254-0.8137 2.797-1.3533 1.3715-0.5396 4.2472-2.207 6.3905-3.7052 2.1432-1.4983 4.6627-2.9163 5.5986-3.1513 1.5578-0.3909 1.6399-0.3305 0.9698 0.714-0.4026 0.6276-2.0584 1.797-3.6796 2.5986-1.6211 0.8017-3.4443 1.9205-4.0516 2.4863-0.6073 0.5657-1.5011 1.1849-1.9863 1.3759-0.7501 0.2952-0.7445 0.3544 0.036 0.3951 0.5053 0.026 1.9374-0.498 3.1824-1.1653 1.245-0.6672 2.6407-1.2132 3.1014-1.2132 0.4609 0 1.1755-0.4068 1.5882-0.904 0.4952-0.5968 1.276-0.7721 2.2971-0.5159 1.2132 0.3046 1.472 0.1933 1.1999-0.5158-0.4516-1.1768 0-1.7716 2.5739-3.3852 1.1677-0.7322 1.7137-1.3317 1.2132-1.3322-0.5004-0.0005-1.3063 0.2498-1.7909 0.5563-1.58 0.9996-1.9739-0.061-0.5754-1.5497 1.0532-1.1212 1.1515-1.4526 0.4308-1.4526-0.5137 0-1.5849 0.4911-2.3806 1.0912-2.5137 1.8959-9.0817 5.5815-9.9468 5.5815-0.4569 0-0.9993 0.273-1.2055 0.6066s-0.6686 0.6066-1.0276 0.6066c-0.8966 0 1.542-1.8059 5.7954-4.2918 1.9551-1.1426 4.4119-2.6003 5.4595-3.2393s2.7237-1.5944 3.7246-2.1231c1.5754-0.8323 9.9588-5.8265 17.159-10.222 1.2388-0.7562 3.6171-2.0368 5.2853-2.8456 3.2378-1.5699 6.4786-3.4378 6.976-4.0208 0.3559-0.4172 7.2082-4.8007 7.5043-4.8007 0.1109 0 2.6306-1.5118 5.5994-3.3596s6.1484-3.6819 7.0659-4.0759 1.6682-0.9294 1.6682-1.1899 0.2455-0.4736 0.5457-0.4736c0.3001 0 2.2792-1.0936 4.3978-2.4301 2.1187-1.3366 4.2617-2.6203 4.7621-2.8528 0.5005-0.2324 2.0414-1.1862 3.4243-2.1194 1.383-0.9332 2.6863-1.6968 2.8963-1.6968s2.1107-1.0919 4.2238-2.4265c2.1131-1.3345 4.0354-2.4264 4.2719-2.4264 0.2364 0 1.2988-0.6551 2.3608-1.4558 2.0187-1.522 3.7977-2.5579 11.333-6.5997 2.5022-1.3421 4.8225-2.6427 5.1561-2.8904 0.7298-0.5417 3.632-2.1969 10.919-6.2274 3.0027-1.6608 6.1419-3.4846 6.976-4.0528 1.4588-0.9938 4.6588-2.8085 12.435-7.0521 6.5459-3.572 7.8068-4.2765 14.558-8.1347 3.67-2.0972 7.9011-4.4658 9.4024-5.2637 1.5014-0.7978 3.1392-1.7042 3.6397-2.0143 4.7167-2.9222 12.982-7.6501 18.198-10.41 8.2546-4.3673 11.684-6.286 15.772-8.8254 3.919-2.4343 12.78-7.5854 22.141-12.871 5.6948-3.2156 10.656-6.2004 20.018-12.043 1.0009-0.6246 4.4131-2.5839 7.5826-4.3539s7.2008-4.152 8.9583-5.2934l3.1956-2.0752-1.0516-1.7802c-0.5784-0.9791-1.3688-1.7802-1.7566-1.7802-1.033 0-5.167 1.7959-6.9193 3.0057-0.8341 0.5759-3.5638 2.156-6.066 3.5111-9.3371 5.0567-13.222 7.3413-20.018 11.773-3.8368 2.502-8.7503 5.6021-10.919 6.8891-2.1686 1.2871-6.2632 3.762-9.0991 5.4999s-6.521 3.843-8.1892 4.6781c-1.6681 0.8352-5.8992 3.224-9.4023 5.3086-3.5032 2.0847-7.7343 4.528-9.4024 5.4296-3.0595 1.6538-5.6377 3.1819-13.277 7.8696-2.2978 1.4101-5.4157 3.0943-6.9286 3.7428-2.9402 1.2603-18.832 10.469-22.863 13.249-1.3345 0.9201-3.6548 2.2921-5.1562 3.0489-1.5013 0.7568-2.8739 1.5988-3.0501 1.8709-0.1763 0.2722-0.8587 0.7141-1.5165 0.9819-1.5691 0.6388-9.2654 5.0485-14.238 8.1579-2.1686 1.356-5.7173 3.488-7.8859 4.7379s-6.3997 3.7182-9.4024 5.4852-7.6432 4.4306-10.312 5.919c-2.669 1.4885-5.9894 3.4947-7.3784 4.4584-1.3891 0.9636-2.6809 1.752-2.8707 1.752s-2.056 1.0453-4.1471 2.3229-6.9411 4.053-10.778 6.1675c-3.8368 2.1146-7.9314 4.3722-9.0991 5.017-1.1677 0.6449-2.942 1.7868-3.9429 2.5378-1.0009 0.7509-4.4131 2.7307-7.5826 4.3994-3.1695 1.6689-7.1128 3.8934-8.7629 4.9434-1.6501 1.0501-3.2307 1.9092-3.5125 1.9092-0.2819 0-1.2521 0.5119-2.156 1.1376-1.3726 0.9499-4.8279 3.0233-17.817 10.691-0.5651 0.3336-3.7086 2.0844-6.9854 3.8906-8.4996 4.6849-8.8007 4.858-17.18 9.871-4.1704 2.4951-9.4934 5.5835-11.829 6.8633-6.5147 3.57-14.282 8.1526-17.094 10.086-1.3946 0.9585-2.9481 1.7428-3.4521 1.7428-0.5041 0-1.0629 0.2369-1.2418 0.5264-0.2913 0.4713-5.1519 3.4609-14.529 8.9363-1.771 1.0342-4.7991 3.0815-6.729 4.5496-1.9298 1.4682-4.6616 3.3518-6.0703 4.1859-1.4089 0.834-4.1731 2.6819-6.1428 4.1064-5.8677 4.2434-12.128 8.126-25.778 15.989-4.7568 2.7399-6.2498 4.4985-5.2842 6.224 0.3011 0.538 0.6358 0.9782 0.7438 0.9782s2.3464-1.2847 4.9743-2.8548zm70.125-41.775c0.5759-0.603 1.2134-0.9299 1.4168-0.7266 0.2033 0.2033-0.2679 0.6967-1.0471 1.0963-1.3545 0.6947-1.3707 0.6784-0.3697-0.3697zm22.524-13.301c0.5004-0.5005 1.2706-0.9012 1.7115-0.8906 0.503 0.012 0.3629 0.3511-0.3759 0.9099-1.5391 1.1641-2.5051 1.1502-1.3356-0.019zm2.8164-1.4011c0-0.3257 0.4323-0.7581 0.9606-0.9608 0.5908-0.2267 0.8681-0.091 0.7203 0.3521-0.3022 0.9068-1.6809 1.406-1.6809 0.6087zm3.3006-2.2578c0.6477-0.4899 1.4505-0.8906 1.7841-0.8906 0.3337 0 0.077 0.4007-0.5709 0.8906-0.6476 0.4898-1.4505 0.8906-1.7841 0.8906s-0.077-0.4008 0.5709-0.8906zm3.2583-1.9116c0.4379-0.1753 0.9611-0.1537 1.1627 0.048 0.2016 0.2016-0.1568 0.3449-0.7962 0.3186-0.7067-0.029-0.8504-0.1728-0.3665-0.3665zm4.1982-2.0874c0.4115-0.4145 0.901-0.6009 1.0878-0.4141 0.1867 0.1867-0.15 0.5259-0.7482 0.7537-0.8646 0.3292-0.9342 0.2595-0.3396-0.3396zm-78.744 50.751c0.942-0.4872 1.865-0.7336 2.0509-0.5475 0.1861 0.1859 0.6958-0.2344 1.1328-0.9342 0.437-0.6997 1.2652-1.2722 1.8405-1.2722 0.9245 0 2.5251-1.9658 2.5837-3.173 0.012-0.2439 0.6586-0.8896 1.4374-1.4351 1.042-0.7298 1.5948-0.813 2.0928-0.315s0.3337 0.6768-0.6219 0.6768c-0.7143 0-1.4787 0.2911-1.6986 0.647-0.733 1.1861 0.067 1.1498 2.6323-0.1193 2.1412-1.0594 2.4858-1.4772 2.1902-2.6551-0.2661-1.0602-0.046-1.4947 0.9138-1.7992 0.6956-0.2207 1.2646-0.6296 1.2646-0.9085 0-0.6422-5.1851 1.3019-6.5554 2.4578-1.9674 1.6596-8.3216 5.7183-10.506 6.711-1.21 0.5497-2.3862 1.3008-2.6139 1.6692-0.6273 1.0151 1.2189 0.8023 2.0841-0.2401 0.8468-1.0203 1.8198-1.2044 1.8198-0.3442 0 0.3111-0.546 0.739-1.2132 0.9508-0.6673 0.2117-1.2132 0.6396-1.2132 0.9508 0 0.7666 0.3761 0.716 2.3796-0.32zm1.26-3.0573c0.4153-0.5004 1.1084-0.9099 1.5402-0.9099s0.8761-0.2368 0.9873-0.5264c0.1112-0.2895 0.8825-0.7383 1.714-0.9974 1.4026-0.437 1.4464-0.3922 0.6066 0.6204-0.8046 0.9701-4.1562 2.7233-5.2062 2.7233-0.2184 0-0.057-0.4095 0.3581-0.91zm15.493-6.4096c0.7113-1.151-0.3262-1.435-1.3826-0.3786-0.9457 0.9457-0.9474 1.0255-0.021 1.0255 0.5522 0 1.184-0.2911 1.4039-0.6469zm3.463-2.0173c1.4919-1.1325 1.3244-1.4534-0.6066-1.1624-1.4733 0.222-1.3669 0.063 0.9099-1.3589 2.4285-1.5169 3.5981-3.2216 1.7143-2.4987-2.0938 0.8035-5.8089 3.5243-5.8089 4.2544 0 1.7497 1.9706 2.1477 3.7913 0.7656zm8.8108-4.9984c1.2458-1.2458 0.079-0.9911-1.9865 0.4334-1.6425 1.133-1.6748 1.2135-0.3316 0.8259 0.8185-0.2362 1.8617-0.8029 2.3181-1.2593zm2.8913-1.4768c0.6529-1.0564-0.091-1.2801-0.9227-0.2777-0.4784 0.5766-0.5245 0.9246-0.1222 0.9246 0.3548 0 0.825-0.2911 1.0449-0.6469zm-2.4799-1.8769c0.8498-0.3872 1.5451-0.9122 1.5451-1.1667s-0.819-0.054-1.8199 0.4451c-2.7321 1.363-2.4957 1.9839 0.2748 0.7216zm3.9715-2.329c0-0.3337 0.4242-0.6066 0.9428-0.6066 0.5185 0 1.8152-0.8177 2.8813-1.8171 1.0663-0.9993 1.5974-1.8182 1.1804-1.8198-0.4171 0-0.7583 0.2413-0.7583 0.5395s-1.36 1.1854-3.0223 1.9715c-3.0194 1.4278-3.8507 2.3391-2.1338 2.3391 0.5004 0 0.9099-0.273 0.9099-0.6066zm5.4594 0c0-0.3337-0.2729-0.6066-0.6066-0.6066-0.3336 0-0.6066 0.2729-0.6066 0.6066 0 0.3336 0.273 0.6066 0.6066 0.6066 0.3337 0 0.6066-0.273 0.6066-0.6066zm252.77-4.0946c-0.1526-0.5839-0.2774-0.1062-0.2774 1.0616 0 1.1677 0.1248 1.6454 0.2774 1.0615 0.1526-0.5838 0.1526-1.5393 0-2.1231zm3.6396 0c-0.1525-0.5839-0.2774-0.1062-0.2774 1.0616 0 1.1677 0.1249 1.6454 0.2774 1.0615 0.1527-0.5838 0.1527-1.5393 0-2.1231zm-10.476 0.6066c-0.2067-0.9175-0.5966-2.6236-0.8666-3.7913-0.8956-3.874-1.3542-13.345-0.6462-13.345 0.3586 0 0.6724 0.3412 0.6972 0.7583 0.084 1.4193 0.588 3.7167 0.8785 4.0071 0.8324 0.8325-0.7969-37.583-2.106-49.654-0.9402-8.6702-2.4729-20.142-3.1551-23.616-1.1336-5.7719-1.7761-2.1419-1.1359 6.4172 0.9588 12.818 2.0049 40.915 2.0181 54.202 0.011 10.882-0.1347 12.814-1.1647 15.463-1.1648 2.9966-2.8045 4.2054-3.444 2.539-0.1819-0.4741-0.5292-5.9781-0.7718-12.231-0.2813-7.2506-0.6383-11.016-0.9854-10.396-0.2994 0.535-0.4465 4.0816-0.3269 7.8813 0.27 8.5827-0.3285 14.76-1.5485 15.979-2.2484 2.2485-3.4182-4.1466-3.454-18.882-0.01-3.3085-0.1418-5.8882-0.2973-5.7327-0.4072 0.4072-0.6925 27.656-0.2937 28.055 0.1834 0.1836 2.5037 0.8692 5.1562 1.5235 12.305 3.0352 11.938 3.0089 11.446 0.8227zm3.6754-7.2793c-0.6915-13.971-1.4098-15.77-1.1503-2.8813 0.1276 6.339 0.2369 11.594 0.2429 11.677 0.01 0.083 0.3123 0.1517 0.6806 0.1517 0.4782 0 0.5431-2.5578 0.2268-8.9475zm-244.15 7.7343c0-0.3337-0.2891-0.6067-0.6424-0.6067-0.3534 0-0.4737 0.273-0.2675 0.6067 0.2062 0.3336 0.4953 0.6066 0.6424 0.6066s0.2675-0.273 0.2675-0.6066zm7.6576-4.1694c1.4754-2.1065 0.6001-2.1737-2.1705-0.1667l-2.5116 1.8194 1.8618-0.142c1.1303-0.086 2.2384-0.6798 2.8203-1.5107zm210.54-3.7654c0.1223-4.9828-0.1452-5.144-1.4289-0.861-0.6822 2.276-2.5961 2.434-3.674 0.3033-0.7435-1.4695-0.7672-1.4413-0.7669 0.9099 0.0002 1.3345 0.2009 2.7267 0.446 3.0937 0.5132 0.7684 3.7913 2.034 4.6919 1.8114 0.3336-0.082 0.663-2.4482 0.7319-5.2573zm37.188-4.6318c-1.2781-11.399-1.7407-13.301-1.4437-5.9349 0.4391 10.891 0.8546 14.474 1.5931 13.735 0.465-0.465 0.4222-2.7025-0.1494-7.8002zm-243.6 4.7903c-0.078-0.1065-0.7011 0.1552-1.3839 0.5816-0.938 0.5858-1.0793 0.9707-0.578 1.5747 0.5311 0.64 0.807 0.524 1.3839-0.5816 0.3962-0.7595 0.6563-1.4682 0.578-1.5747zm296.07-2.991c-0.2205-2.5857-0.6162-6.4755-0.8792-8.6441l-0.4782-3.943-0.079 3.6397c-0.1212 5.5606 0.6307 13.649 1.2688 13.649 0.3398 0 0.4075-1.8938 0.168-4.7012zm-98.166 2.161c-0.1936-0.4839-0.3374-0.3401-0.3664 0.3665-0.026 0.6395 0.117 0.9978 0.3186 0.7962 0.2015-0.2016 0.2231-0.7248 0.048-1.1627zm101.56-6.051c-0.5012-1.6833-0.5636-1.309-0.3704 2.2218 0.3011 5.5027 0.4718 6.1032 0.7481 2.6311 0.1237-1.5556-0.046-3.7394-0.3777-4.8529zm-294.27 4.345c0-0.3337-0.1203-0.6066-0.2675-0.6066-0.1471 0-0.4362 0.2729-0.6424 0.6066-0.2062 0.3336-0.086 0.6066 0.2675 0.6066 0.3533 0 0.6424-0.273 0.6424-0.6066zm3.116-2.2977c-0.4376-0.1459-1.0841 0.023-1.4366 0.3756-0.4501 0.4502-0.2133 0.5292 0.7957 0.2653 0.8202-0.2145 1.0952-0.4895 0.6409-0.6409zm4.2202-1.3724c0.6546-0.3504 1.0319-0.8932 0.8385-1.2063-0.1935-0.313 0.072-0.4066 0.5896-0.208 0.5178 0.1988 0.9414 0.059 0.9414-0.3102 0-1.0587-1.0962-0.7947-3.5093 0.845-1.5254 1.0366-1.8866 1.5165-1.1412 1.5165 0.5998 0 1.6263-0.2866 2.281-0.637zm193.95-3.7609-0.102-4.3978-0.3597 3.6396c-0.3374 3.4151-0.2276 5.1561 0.3252 5.1561 0.1311 0 0.1926-1.979 0.1365-4.3979zm-186.39 0.1517c0.4363 0 0.9674-0.5489 1.1804-1.2199 0.2129-0.6709 1.2121-1.6464 2.2203-2.1678 1.0083-0.5214 1.6668-1.1144 1.4635-1.3178-0.2034-0.2033-0.6928-0.047-1.0877 0.3481-0.3947 0.3947-1.0452 0.7178-1.4454 0.7178s-2.1881 0.9947-3.9732 2.2104c-3.1115 2.1191-3.161 2.1943-1.1984 1.8198 1.126-0.2148 2.4042-0.3906 2.8405-0.3906zm278.53-5.6002c-0.1349-1.0903-0.2482-0.3445-0.2516 1.6573-0.01 2.0018 0.1071 2.8938 0.2455 1.9823s0.1412-2.5493 0.01-3.6396zm-77.665-0.9093c-0.1538-0.5902-0.2898-0.2542-0.3021 0.7467-0.012 1.0009 0.1135 1.4839 0.2796 1.0731 0.1662-0.4106 0.1763-1.2296 0.023-1.8198zm-12.757-0.3148c-0.1683-0.4171-0.306-0.076-0.306 0.7582 0 0.8341 0.1377 1.1753 0.306 0.7583s0.1683-1.0995 0-1.5165zm23.051-2.4264c-0.1683-0.4171-0.306-0.076-0.306 0.7582 0 0.8341 0.1377 1.1753 0.306 0.7583 0.1683-0.4171 0.1683-1.0995 0-1.5165zm10.346-5.1478c-0.1394-0.9221-0.2572-0.3117-0.2618 1.3565-0.01 1.6681 0.1096 2.4226 0.2535 1.6765 0.144-0.7461 0.1477-2.111 0.01-3.033zm-10.565 2.6663c0.1717-0.4473 0.069-1.198-0.2291-1.6681-0.3939-0.6222-0.5437-0.4008-0.5505 0.8132-0.01 1.8115 0.2874 2.1376 0.7796 0.8549zm14.791-2.3335c-0.1936-0.4839-0.3374-0.3402-0.3664 0.3665-0.026 0.6395 0.117 0.9978 0.3186 0.7962s0.2231-0.7248 0.048-1.1627zm-201.62-0.8808c0.6459-0.6459-0.1636-1.4022-1.1116-1.0385-0.4878 0.1872-0.7359 0.5847-0.5513 0.8834 0.3932 0.6362 1.1145 0.7035 1.6629 0.1551zm3.1755-1.3915c-0.2199-0.3558-0.8614-0.6153-1.4256-0.5766-0.9247 0.063-0.9212 0.098 0.036 0.3478 0.5839 0.1525 1.0616 0.5758 1.0616 0.9406s0.1638 0.4995 0.364 0.2992c0.2003-0.2002 0.1841-0.6552-0.036-1.011zm246.02-0.8214c-0.4954-0.4954-0.6748-0.4275-0.6748 0.2553 0 1.2059 0.8157 2.0216 1.1172 1.1172 0.1278-0.3837-0.071-1.0013-0.4424-1.3725zm-51.818-2.7069c-0.1526-0.5839-0.2774-0.1062-0.2774 1.0615s0.1248 1.6454 0.2774 1.0616c0.1526-0.5839 0.1526-1.5393 0-2.1231zm-196.65 0.9099c2.7107-1.7558 2.7837-2.7826 0.079-1.1111-1.1237 0.6945-2.4886 1.2627-3.0331 1.2627s-0.99 0.273-0.99 0.6066c0 1.0134 1.7192 0.6828 3.944-0.7582zm6.2167 0.1583c1.0843-0.6611 1.9715-1.479 1.9715-1.8176 0-0.3385 0.8189-0.6155 1.8198-0.6155 1.2715 0 1.8198-0.2955 1.8198-0.9806 0-0.7189 0.4047-0.9033 1.5165-0.6908 1.0175 0.1946 1.5165 0.018 1.5165-0.5366 0-1.0854 7.452-4.5931 8.7223-4.1056 0.5419 0.2079 0.9834 0.076 0.9834-0.2941 0-0.3694-0.3064-0.6716-0.6809-0.6716-0.9179 0 0.5803-1.8149 1.5134-1.8332 0.3762-0.01 1.3664-0.5474 2.2005-1.1998s2.1307-1.1923 2.8814-1.1997c0.783-0.01 1.3649-0.3892 1.3649-0.895 0-0.4848 1.0236-1.3569 2.2747-1.9382 2.5591-1.1887 6.7176-3.7657 7.9292-4.9134 0.6609-0.626 0.6342-0.7594-0.1516-0.7594-0.5243 0-0.9554 0.2048-0.958 0.455 0 0.2502-0.6168 0.763-1.3648 1.1395-0.7481 0.3765-2.5886 1.2996-4.0899 2.0514-1.5014 0.7518-2.8662 1.5356-3.033 1.7419-0.1668 0.2062-1.2587 0.8413-2.4265 1.4113-3.0421 1.485-5.73 3.1364-5.9649 3.6649-0.1112 0.2502-0.5752 0.4549-1.0312 0.4549-0.4559 0-2.0656 0.8347-3.5771 1.8548-1.5115 1.02-4.4596 2.7491-6.5514 3.8422-5.0885 2.659-7.46 4.0431-9.7273 5.6769-1.8527 1.3349-1.8617 1.3648-0.4115 1.3626 0.8155 0 2.3699-0.5432 3.4542-1.2043zm246.24-2.888c-0.1526-0.5839-0.2774-0.1062-0.2774 1.0615s0.1248 1.6454 0.2774 1.0616c0.1526-0.5839 0.1526-1.5393 0-2.1231zm-66.73 0.3412c-0.1936-0.4839-0.3374-0.3402-0.3664 0.3665-0.026 0.6394 0.117 0.9977 0.3185 0.7961 0.2016-0.2015 0.2232-0.7247 0.048-1.1626zm-179.67-1.4186c1.3346-0.6586 2.5174-1.4021 2.6286-1.6524 0.1113-0.2502 0.5466-0.4549 0.9676-0.4549s1.2594-0.546 1.8633-1.2132c0.6039-0.6673 0.7988-1.2132 0.4331-1.2132s-0.8189 0.2493-1.0073 0.5541c-0.1883 0.3047-1.5011 1.1257-2.9171 1.8242-1.4162 0.6987-3.2572 1.8343-4.0913 2.5238-1.7065 1.4106-1.3601 1.3505 2.1231-0.3684zm168.94-8.1734-0.3997-7.5825-0.1014 7.3297c-0.056 4.0315 0.081 7.5119 0.3031 7.7343 0.2223 0.2224 0.4478 0.3361 0.501 0.2527 0.053-0.083-0.083-3.5638-0.303-7.7342zm77.043 5.1562c0-1.5014-0.2174-2.7298-0.4831-2.7298-0.4325 0-0.4683 0.78-0.2017 4.3979 0.1631 2.2138 0.6848 0.943 0.6848-1.6681zm-4.2462-0.5709c0-0.4807-0.273-1.0428-0.6066-1.249-0.3336-0.2061-0.6066 0.1872-0.6066 0.8742 0 0.6869 0.273 1.249 0.6066 1.249s0.6066-0.3934 0.6066-0.8742zm-231.29-2.5408c1.5966-0.8773 3.3339-1.9692 3.8606-2.4264s1.3805-0.8313 1.8972-0.8313 1.2794-0.4095 1.6947-0.9099c0.5905-0.7115 0.5931-0.9099 0.012-0.9099-0.9134 0-6.9106 3.1622-7.1901 3.7913-0.1113 0.2502-0.4639 0.4549-0.7837 0.4549-0.3197 0-1.1674 0.546-1.8836 1.2132-1.7542 1.6343-1.0805 1.5268 2.393-0.3819zm155.88-3.978c-0.1936-0.4839-0.3374-0.3402-0.3665 0.3665-0.026 0.6394 0.1171 0.9977 0.3186 0.7961 0.2016-0.2015 0.2231-0.7247 0.048-1.1626zm-145.39-2.3127c0-0.3337 0.455-0.6066 1.0111-0.6066 0.556 0 0.8611-0.1498 0.6781-0.3329-0.4907-0.4907-3.509 0.3739-3.509 1.0052 0 0.2975 0.4095 0.5409 0.9099 0.5409 0.5005 0 0.9099-0.273 0.9099-0.6066zm223.84-2.4622c0-1.0826-0.2527-1.6995-0.6066-1.4808-0.3336 0.2062-0.6066 1.0413-0.6066 1.8557s0.273 1.4807 0.6066 1.4807 0.6066-0.8351 0.6066-1.8556zm-4.4324-1.0143c-0.1539-0.5901-0.2898-0.2541-0.3021 0.7468-0.012 1.0009 0.1134 1.4838 0.2795 1.073 0.1663-0.4106 0.1763-1.2295 0.023-1.8198zm-71.731-3.3478c-0.1727-1.418-0.5369-6.7463-0.8091-11.841-0.4642-8.6845-0.7777-10.55-1.6298-9.6977-0.4125 0.4125 1.3795 22.722 1.8916 23.551 0.6928 1.1209 0.856 0.5208 0.5473-2.0121zm24.409 1.2511c-0.1936-0.4839-0.3374-0.3402-0.3664 0.3665-0.026 0.6394 0.117 0.9977 0.3186 0.7962 0.2015-0.2016 0.2231-0.7248 0.048-1.1627zm-153.92-1.3638c0.3975-0.479 1.5228-1.0466 2.5006-1.2614 1.5504-0.3406 2.5708-1.5044 1.323-1.509-0.8185-0.01-5.6111 2.7177-5.6111 3.1853 0 0.7517 1.0148 0.5161 1.7875-0.4149zm10.354-5.504c2.0713-1.1707 4.3496-2.279 5.0628-2.4628 1.7201-0.4432 3.7347-1.9686 3.2457-2.4576-0.3819-0.3819-4.6904 1.3855-5.2852 2.168-0.1668 0.2196-1.5317 1.0123-3.033 1.7619-4.7247 2.3586-5.8599 3.1004-4.7595 3.1103 0.5518 0.01 2.698-0.949 4.7692-2.1198zm142.94-0.4494c-0.1683-0.417-0.306-0.076-0.306 0.7583 0 0.8341 0.1377 1.1753 0.306 0.7582 0.1683-0.417 0.1683-1.0994 0-1.5165zm51.312-1.9499c-0.1602-0.8382-0.4965-1.3972-0.7472-1.2422-0.2508 0.155-0.3248 0.9676-0.1646 1.8057 0.1602 0.8382 0.4965 1.3972 0.7472 1.2422 0.2508-0.155 0.3248-0.9676 0.1646-1.8057zm-3.7922 0.3175c0-0.3139-0.273-0.7395-0.6066-0.9457-0.3337-0.2061-0.6066 0.051-0.6066 0.5709 0 0.5201 0.2729 0.9457 0.6066 0.9457 0.3336 0 0.6066-0.2569 0.6066-0.5709zm-48.127-3.2204c-0.1683-0.4171-0.306-0.076-0.306 0.7582 0 0.8341 0.1377 1.1753 0.306 0.7583 0.1683-0.4171 0.1683-1.0995 0-1.5165zm34.589-3.6017c-0.1936-0.4839-0.3374-0.3402-0.3664 0.3665-0.026 0.6394 0.117 0.9977 0.3186 0.7961 0.2015-0.2015 0.2231-0.7247 0.048-1.1626zm6.2583 0.1495c0-0.3139-0.273-0.7395-0.6066-0.9457s-0.6066 0.051-0.6066 0.5708c0 0.5201 0.273 0.9457 0.6066 0.9457s0.6066-0.2568 0.6066-0.5708zm-157.42-6.0949c0.2126-0.3439-0.031-0.4456-0.5708-0.2384-1.0509 0.4032-1.2431 0.838-0.3706 0.838 0.3139 0 0.7376-0.2698 0.9414-0.5996zm163.73-1.6751c-0.5691-3.1479-0.8569-3.2328-0.8569-0.2528 0 1.3902 0.2853 2.5275 0.634 2.5275 0.4015 0 0.4833-0.8346 0.2229-2.2747zm-156.83-2.0835c3.346-1.9426 6.672-3.7469 12.852-6.9715 2.5229-1.3166 5.2451-2.8546 6.0493-3.4179s1.7877-1.0241 2.1854-1.0241c0.877 0 10.753-6.5654 11.038-7.338 0.1113-0.3013 0.025-0.5479-0.1914-0.5479-1.1002 0-9.8725 4.671-15.609 8.3113-3.5744 2.2682-7.9248 4.9431-9.6674 5.944-10.084 5.7918-12.041 7.0374-12.041 7.6638 0 0.3124 0.5804 0.2172 1.2897-0.2116s2.5518-1.5124 4.0945-2.4081zm149.52 0.4153c-0.192-0.5004-0.4564-0.9099-0.5875-0.9099s-0.2384 0.4095-0.2384 0.9099c0 0.5005 0.2644 0.9099 0.5876 0.9099s0.4304-0.4094 0.2383-0.9099zm-110.01-23.225c5.2551-2.6511 7.3436-3.8163 7.8845-4.3988 0.1668-0.1796 1.2587-0.9257 2.4264-1.6579s1.7948-1.3359 1.3934-1.3416c-1.1177-0.016-3.8198 1.3333-3.8198 1.907 0 0.2801-0.4519 0.5093-1.0043 0.5093s-1.899 0.6824-2.9926 1.5165c-1.0935 0.8341-2.2112 1.5173-2.4837 1.5184-0.2724 0-2.1332 1.1178-4.135 2.4815-4.3107 2.9367-4.0469 2.885 2.7311-0.5344zm60.659-0.1292c0-0.6673-0.273-1.2132-0.6066-1.2132-0.3337 0-0.6067 0.5459-0.6067 1.2132s0.273 1.2132 0.6067 1.2132c0.3336 0 0.6066-0.5459 0.6066-1.2132zm-21.231-16.611c0-0.1279-0.546-0.3753-1.2132-0.5498-0.6673-0.1745-1.2133-0.07-1.2133 0.2325 0 0.3024 0.546 0.5499 1.2133 0.5499 0.6672 0 1.2132-0.1047 1.2132-0.2326zm-29.724-7.6533c-1.1677-0.6393-2.3961-1.1624-2.7297-1.1624-0.3337 0 0.3488 0.5231 1.5165 1.1624s2.3961 1.1624 2.7297 1.1624c0.3337 0-0.3488-0.5231-1.5165-1.1624zm47.315-0.9413c-3.1849-1.0036-4.7531-1.1331-3.9126-0.3233 0.6279 0.605 2.74 1.0753 5.1258 1.1414 0.9749 0.027 0.5416-0.2652-1.2132-0.8181zm6.6727-0.5322c0-0.4393-6.7816-2.2594-7.128-1.913-0.3518 0.3518 0.2246 0.5973 3.4884 1.4859 2.4263 0.6605 3.6396 0.8029 3.6396 0.4271zm-44.155-2.1545 1.2897-1.2016-2.3767-0.9833c-2.7177-1.1244-9.1147-4.2969-12.689-6.2928-5.8916-3.29-11.91-6.946-12.196-7.4086-0.5614-0.9085-2.039-0.5496-1.6722 0.4062 0.1921 0.5005 0.6149 0.9099 0.9397 0.9099s2.0017 0.924 3.7264 2.0533c1.7247 1.1292 5.1276 3.0728 7.562 4.3189 2.4345 1.2462 4.2767 2.4155 4.0937 2.5984-0.1829 0.1829-0.9463 0.052-1.6965-0.292-4.3568-1.9949-5.9217-2.7744-8.7749-4.3707-1.7406-0.9737-3.9926-2.3599-5.0045-3.0805-1.0119-0.7205-1.8398-1.0286-1.8398-0.6847 0 1.0747 6.6394 5.1545 15.165 9.3189 4.504 2.2 8.7351 4.4211 9.4024 4.9358 1.6268 1.2548 2.5337 1.2041 4.0702-0.2272zm-8.3165-3.3321c-1.3345-0.822-2.2108-1.503-1.9473-1.5135 0.6539-0.026 5.2836 2.3603 5.2836 2.7231 0 0.5974-0.9784 0.2426-3.3363-1.2096zm65.652 1.1341c-0.2015-0.2016-0.7247-0.2231-1.1626-0.048-0.4839 0.1936-0.3402 0.3374 0.3665 0.3665 0.6394 0.026 0.9977-0.117 0.7961-0.3186zm-52.94-0.8048c0.192-0.3105 0.067-0.7389-0.2774-0.9518-0.3445-0.2129-0.4809-0.6224-0.3033-0.9099 0.1777-0.2875 0.046-0.6943-0.2934-0.9038-0.3391-0.2096-0.6165-0.092-0.6165 0.2614 0 0.3533-0.2404 0.6424-0.5342 0.6424-0.8612 0-15.692-7.1482-16.057-7.7394-0.1832-0.2964-1.4386-0.9037-2.7899-1.3497-1.3512-0.4459-2.4568-1.0082-2.4568-1.2495s-0.4777-0.6019-1.0615-0.8013c-0.5839-0.1995-2.5154-1.1942-4.2923-2.2105-1.7769-1.0164-3.0551-1.5636-2.8403-1.2161 0.2148 0.3476 1.3957 1.1805 2.6242 1.8509 1.2284 0.6704 3.3255 1.905 4.66 2.7434s4.6102 2.6299 7.2793 3.9809c2.669 1.3511 7.3096 3.7898 10.312 5.4193 5.8919 3.1976 6.1225 3.282 6.6467 2.4337zm45.581-1.0052c-2.9699-0.8146-5.5151-1.3658-5.656-1.2249s1.3337 0.7048 3.2768 1.2531 3.8059 1.0979 4.1396 1.2214c0.3336 0.1235 1.289 0.2261 2.1231 0.228 0.8341 0-0.9135-0.663-3.8835-1.4776zm9.6462-0.8635c-2.3354-0.6139-5.4407-1.5459-6.9005-2.0711-3.2016-1.1518-4.5074-1.2133-4.1744-0.1967 0.1367 0.4171 2.8209 1.3508 5.965 2.0749 7.0784 1.6303 11.165 1.7846 5.1099 0.1929zm-60.357-2.982c0-0.3093-1.4331-1.2605-3.1847-2.1136-3.1028-1.5113-5.0759-2.596-15.51-8.5266-2.7754-1.5775-5.2298-2.6844-5.4544-2.4598-0.2246 0.2245 0.1262 0.729 0.7794 1.121 4.7639 2.8587 8.2977 4.8018 15.18 8.3473 4.3372 2.2342 7.9541 4.0919 8.0375 4.1282 0.083 0.036 0.1517-0.1871 0.1517-0.4965zm2.6872-3.7524c-0.2296-0.3714-1.5745-1.1872-2.9886-1.8128-1.4143-0.6256-2.9138-1.55-3.3324-2.0544-0.9454-1.1391-0.3734-1.1671 1.7204-0.084 2.8559 1.4772 6.3035 2.865 6.5371 2.6314 0.125-0.1249-0.3865-0.5292-1.1366-0.8982-10.517-5.174-24.122-11.665-24.448-11.665-0.2303 0-0.079 0.4095 0.3364 0.9099 0.6072 0.7317 0.5963 0.9099-0.056 0.9099-0.605 0-0.5606 0.2503 0.1749 0.9858 0.5421 0.5422 1.6811 0.9857 2.5311 0.9857s1.4886 0.2571 1.419 0.5714c-0.1294 0.5852 17.432 10.016 18.866 10.132 0.4367 0.035 0.6062-0.24 0.3766-0.6114zm-21.189-10.85c-0.2062-0.3336-0.086-0.6066 0.2675-0.6066 0.3533 0 0.6424 0.273 0.6424 0.6066 0 0.3337-0.1203 0.6067-0.2675 0.6067-0.1471 0-0.4362-0.273-0.6424-0.6067zm26.994 7.0044c0-0.3895-5.4733-2.7638-6.2948-2.7307-0.8751 0.035 4.5282 2.9417 5.5365 2.9782 0.417 0.015 0.7583-0.096 0.7583-0.2475zm18.805-0.3161c0-0.7777-2.7966-2.1824-5.4594-2.7423-1.1677-0.2455-2.8056-0.8168-3.6397-1.2695-2.5347-1.3759-11.586-4.6376-11.926-4.2977-0.395 0.3951 2.3588 1.8162 5.464 2.8197 1.2833 0.4148 3.0577 1.1321 3.9429 1.5939 0.8853 0.4619 1.8825 0.8427 2.2161 0.8464 0.7763 0.01 7.4841 2.7332 8.001 3.2501 0.5863 0.5863 1.4014 0.4696 1.4014-0.2006zm3.5031-2.5484c-0.2111-0.6333-7.1059-2.947-8.6592-2.9058-1.0071 0.027 1.6265 1.3773 4.8528 2.4888 3.7101 1.2782 4.108 1.3217 3.8064 0.417zm-32.663-2.4338c1.1007-0.6875 1.0833-0.757-0.3808-1.5165-0.844-0.4379-1.7385-0.7962-1.9878-0.7962s-2.457-1.1014-4.9061-2.4476c-3.3897-1.8633-4.8582-2.3587-6.1501-2.075-0.9334 0.2051-1.6913 0.5559-1.6841 0.7796 0.027 0.8224 7.6314 3.9279 9.541 3.896 1.7967-0.03 2.9726 1.0242 1.2132 1.0876-0.5646 0.021 1.7432 1.3432 3.0413 1.7432 0.088 0.027 0.6789-0.2749 1.3134-0.6711zm-6.9328-2.9193c-0.2062-0.3336 0.051-0.6066 0.5708-0.6066 0.5201 0 0.9457 0.273 0.9457 0.6066 0 0.3337-0.2568 0.6066-0.5708 0.6066-0.3139 0-0.7395-0.2729-0.9457-0.6066zm-2.8814-1.6149c0.4171-0.1683 1.0995-0.1683 1.5165 0 0.4171 0.1682 0.076 0.3059-0.7582 0.3059-0.8341 0-1.1753-0.1377-0.7583-0.3059zm-2.9951-1.2259c0.4379-0.1752 0.9611-0.1537 1.1627 0.048 0.2016 0.2015-0.1567 0.3449-0.7962 0.3186-0.7067-0.029-0.8504-0.1729-0.3665-0.3665zm18.312 1.021c-1.1677-0.6393-2.5326-1.1624-3.033-1.1624-0.5005 0 0.046 0.5231 1.2132 1.1624 1.1677 0.6393 2.5326 1.1624 3.033 1.1624 0.5005 0-0.046-0.5231-1.2132-1.1624zm-6.9759-0.6066c-0.2062-0.3336-0.7001-0.6024-1.0974-0.5973-0.4341 0.01-0.3593 0.244 0.1874 0.5973 1.1654 0.7531 1.3754 0.7531 0.91 0zm91.007-10.802c-0.1867-0.1868-0.6762-0.0004-1.0877 0.4141-0.5946 0.5991-0.525 0.6688 0.3396 0.3396 0.5982-0.2278 0.9349-0.567 0.7481-0.7537zm3.6397-2.4265c-0.1868-0.1867-0.6763-0.0003-1.0878 0.4142-0.5946 0.5991-0.5249 0.6688 0.3396 0.3396 0.5982-0.2278 0.935-0.567 0.7482-0.7538zm9.6056-4.06c-0.3691-0.9621-1.4325-1.2623-1.4325-0.4045 0 0.6415 0.6631 1.3144 1.2953 1.3144 0.2675 0 0.3293-0.4095 0.1372-0.9099zm7.5761-4.6089c2.0742-0.7231 2.4318-1.7858 1.0004-2.9737-0.9975-0.8278-1.2202-2.7696-0.3775-3.2905 0.2928-0.181 1.5406 0.6219 2.7729 1.7841 2.4897 2.3481 2.7607 2.4754 2.7607 1.2975 0-0.4486-1.4396-2.3019-3.1991-4.1186-3.3687-3.478-4.1829-3.6773-6.9468-1.7004-1.346 0.9628-4.1008 6.5419-3.5179 7.1248 0.1751 0.1751 0.3185-0.051 0.3185-0.5027 0-0.5128 0.6265-0.2375 1.6682 0.7331 0.9174 0.8549 2.0776 1.7034 2.578 1.8855 0.5005 0.1821 0.9375 0.3526 0.9711 0.379 0.033 0.026 0.9207-0.2518 1.9715-0.6181zm-319.49 224.07c-2.4776-0.1851-3.1596-0.4428-2.9079-1.0988 0.1809-0.4713 0.068-1.0183-0.2512-1.2155-0.319-0.1972-0.5801-0.7852-0.5801-1.3068 0-0.8091 0.8014-0.91 5.4594-0.6873 4.8375 0.2313 5.4595 0.1435 5.4595-0.7708 0-1.0315 1.1581-1.7682 2.7793-1.7682 0.4732 0 0.8603 0.3739 0.8603 0.831 0 0.5362 0.9788 0.9413 2.7597 1.1421 3.3235 0.3745 3.9764 0.8896 2.4981 1.9705-0.7618 0.557-2.1405 0.705-4.397 0.4721-2.7354-0.2823-3.2872-0.1782-3.2872 0.6198 0 0.5274-0.2068 1.0867-0.4596 1.2429-0.8671 0.536-4.6986 0.8108-7.9333 0.569zm17.189-6.2589c-2.0018-0.256-3.8133-0.3597-4.0257-0.2305-0.2123 0.1292-0.5318-0.3229-0.7101-1.0047-0.4123-1.5765 1.5243-2.3864 5.7065-2.3864 1.7785 0 3.6405-0.4099 4.5405-0.9995 2.0634-1.3521 13.68-0.8233 15.195 0.6917 0.5348 0.5347 0.778 1.1639 0.5406 1.3983-0.2375 0.2343-3.2726 0.399-6.7449 0.3659-5.8641-0.056-7.3119 0.2812-5.6418 1.3134 1.0817 0.6685-0.7008 1.4669-3.0978 1.3877-1.1677-0.039-3.7609-0.2798-5.7627-0.5359zm7.5252-3.5331c-0.8965-0.3081-1.3519 0.3167-0.8375 1.1491 0.3261 0.5278 0.5721 0.499 0.9512-0.1112 0.3004-0.4835 0.2534-0.9117-0.1137-1.0379zm14.44-0.9575c-0.5229-0.5229-1.5162-0.9508-2.2074-0.9508-0.6911 0-1.2565-0.3087-1.2565-0.6861 0-0.4848 1.8665-0.6031 6.3607-0.4032 5.2306 0.2326 6.2423 0.1402 5.6945-0.5199-1.059-1.276 0.7934-1.6305 6.0245-1.153 2.5674 0.2344 5.4048 0.4457 6.3053 0.4696 1.8062 0.048 2.6397 1.2602 1.5106 2.1973-0.3977 0.3301-3.0429 0.7634-5.8784 0.963-15.185 1.0691-15.565 1.071-16.553 0.083zm11.537-1.9239c-0.2016-0.2016-0.7248-0.2231-1.1627-0.048-0.4839 0.1936-0.3402 0.3374 0.3665 0.3665 0.6394 0.026 0.9978-0.117 0.7962-0.3186zm12.042-1.6659c0.3757-0.9789-0.7188-1.3395-3.3855-1.1152-0.5004 0.042-1.3117-0.066-1.8028-0.2404-2.1885-0.7767 1.1983-1.4787 6.741-1.3971 3.2164 0.047 6.1345-0.091 6.4848-0.3076 0.7971-0.4927 3.3153 2.1226 2.6676 2.7703-0.2611 0.2611-2.863 0.6583-5.7819 0.8826-4.7792 0.3675-5.269 0.3085-4.9232-0.5926zm11.78-3.044c0-0.6729-0.5338-0.9926-1.6682-0.9989-0.9175-0.01-2.0455-0.2482-2.5065-0.5403-1.4271-0.9038 0.8386-1.2177 9.7858-1.3555 4.5874-0.071 8.3408-0.2236 8.3408-0.3399s-0.7507-0.5251-1.6682-0.9084l-1.6681-0.697 2.1231-0.3546c1.1677-0.1951 4.03-0.1574 6.3607 0.084 4.7051 0.4868 7.0424-0.4169 2.8233-1.0916-1.396-0.2232-2.7094-0.6828-2.9187-1.0214-0.2532-0.4097 2.0335-0.5104 6.8378-0.3011 4.7518 0.207 6.705 0.123 5.7163-0.2458-3.1398-1.1713 0.3308-1.6375 9.5182-1.2786 6.0791 0.2373 9.2719 0.151 9.2719-0.2508 0-0.3371-0.8871-0.8673-1.9714-1.1784-1.0844-0.3109-1.9715-0.9646-1.9715-1.4525 0-0.5576 0.7325-0.9579 1.9715-1.0774 1.6486-0.1589 1.9714 0.015 1.9714 1.0616 0 0.6884 0.2047 1.1976 0.455 1.1315 1.1957-0.3159 3.2374 0.9135 3.0561 1.8401-0.1626 0.8308-1.0558 1.0273-5.0391 1.1084-2.6627 0.054-5.5238 0.1398-6.3579 0.1901-1.5145 0.091-1.5147 0.092-0.1516 0.6401 2.4815 0.9975 1.4666 1.8009-2.2748 1.8009-2.022 0-3.6396 0.2696-3.6396 0.6066 0 0.3613-2.3018 0.6066-5.692 0.6066-5.1818 0-5.7204 0.1088-6.0092 1.2132-0.2925 1.1184-0.8275 1.2133-6.8473 1.2133-5.2169 0-6.7525 0.2012-7.636 1.0007-0.7401 0.6698-2.6117 1.0975-5.6588 1.293-3.9253 0.2519-4.553 0.1558-4.553-0.6975zm57.133-11.923c-3.1051-0.4522-5.1653-1.8946-4.745-3.3221 0.3481-1.1821 2.627-0.9413 7.0438 0.7443 7.1491 2.7282 6.1819 3.8127-2.2988 2.5778zm6.5608-3.5832c0-0.3104 0.6142-0.6584 1.3649-0.7734 1.3064-0.2 1.2898-0.2498-0.3899-1.1661-1.3623-0.743-1.5658-1.0759-0.9099-1.4887 1.0313-0.6489 7.8203-0.7374 7.8206-0.102 0.0001 0.2503-0.8187 0.455-1.8196 0.455-2.5678 0-2.2591 0.8896 0.6066 1.7482 3.7483 1.1229 2.8857 1.8914-2.1231 1.8914-2.5023 0-4.5496-0.254-4.5496-0.5644zm11.243-3.715c0.195-0.3154 1.089-0.5999 1.9868-0.6324 1.5255-0.055 1.4834-0.12-0.6424-0.9922-1.2511-0.5133-2.2748-1.1692-2.2748-1.4575 0-0.7697 5.7076-0.6401 6.4952 0.1474 0.3694 0.3694 1.5825 0.858 2.6957 1.0857 1.1834 0.242 2.105 0.8346 2.2191 1.4269 0.1707 0.8868-0.492 1.0119-5.3194 1.0042-3.3066-0.01-5.3726-0.2383-5.1601-0.5821zm9.3847-3.1515c0-0.2502 0.4749-0.461 1.0588-0.4684 0.893-0.012 0.8424-0.1822-0.3191-1.0761-1.0902-0.839-1.2242-1.2191-0.6369-1.8064 1.0147-1.0147 2.3208-0.9372 2.3208 0.1377 0 0.9433 3.4513 2.1426 6.182 2.1483 2.0251 0.01 2.7528 0.9944 1.1131 1.5148-1.6041 0.5092-9.7152 0.1337-9.7187-0.4499zm14.571-3.3239c-3.8347-0.2236-6.0809-1.3952-6.0809-3.1717 0-0.7664 4.0387-0.852 4.5062-0.095 0.1824 0.2951 2.121 0.8742 4.3081 1.2868 2.4176 0.4562 3.8882 1.0187 3.7513 1.435-0.2598 0.7896-1.0927 0.8596-6.4847 0.5454zm-8.9508-0.5844c0.5903-0.1538 1.4092-0.1437 1.8199 0.022 0.4107 0.1662-0.072 0.292-1.0731 0.2796-1.0009-0.012-1.3369-0.1483-0.7468-0.302zm14.104-3.8979c-1.0075-0.5401-1.7637-1.1543-1.6803-1.3649 0.083-0.2106 0.1517-0.6197 0.1517-0.9091 0-0.5136 6.1606-1.9946 6.5817-1.5823 0.502 0.4915-0.6852 1.5019-1.7647 1.5019-0.6476 0-1.1774 0.2438-1.1774 0.5417 0 0.7827 1.5904 1.2767 4.1442 1.2874 2.5264 0.01 4.2669 0.8077 3.2013 1.4663-1.162 0.7181-7.5463 0.083-9.4565-0.941zm7.5705-3.5069c1.3719-0.7672 7.0223-1.3615 8.7714-0.9225 3.2028 0.8038 1.3391 1.4677-4.0702 1.4499-3.3509-0.011-5.2446-0.2234-4.7012-0.5274z"/>
  </g>
  <metadata>
    <rdf:RDF>
      <cc:Work>
        <dc:format>image/svg+xml</dc:format>
        <dc:type rdf:resource="http://purl.org/dc/dcmitype/StillImage"/>
        <cc:license rdf:resource="http://creativecommons.org/licenses/publicdomain/"/>
        <dc:publisher>
          <cc:Agent rdf:about="http://openclipart.org/">
            <dc:title>Openclipart</dc:title>
          </cc:Agent>
        </dc:publisher>
      </cc:Work>
      <cc:License rdf:about="http://creativecommons.org/licenses/publicdomain/">
        <cc:permits rdf:resource="http://creativecommons.org/ns#Reproduction"/>
        <cc:permits rdf:resource="http://creativecommons.org/ns#Distribution"/>
        <cc:permits rdf:resource="http://creativecommons.org/ns#DerivativeWorks"/>
      </cc:License>
    </rdf:RDF>
  </metadata>
</svg>
